<?xml version="1.0" standalone="no"?><!DOCTYPE svg PUBLIC "-//W3C//DTD SVG 1.1//EN" "http://www.w3.org/Graphics/SVG/1.1/DTD/svg11.dtd"><svg t="1504580381344" class="icon" style="" viewBox="0 0 1024 1024" version="1.1" xmlns="http://www.w3.org/2000/svg" p-id="15519" xmlns:xlink="http://www.w3.org/1999/xlink" width="32" height="32"><defs><style type="text/css"></style></defs><path d="M512 512.662889z m-498.200953 0c0 275.148991 223.051962 498.199736 498.200953 498.199737S1010.199736 787.813097 1010.199736 512.662889 787.148991 14.461937 512 14.461937 13.799047 237.513898 13.799047 512.662889" fill="#20A0FF" p-id="15520"></path><path d="M770.755552 543.025659L546.97502 302.72276c-9.096789-9.73292-21.793859-15.334032-34.97502-15.334032s-25.902557 5.599895-34.996914 15.334032L253.266341 542.980655c-16.213425 17.444331-11.88579 33.393816-9.228151 39.435233 2.615068 5.998845 11.293447 20.0594 35.107599 20.0594h93.216852c0.262723 0 0.526663 0.328404 0.526663 0.593559v171.425645c0.060816 27.336588 22.206188 49.481961 49.54156 49.540344h179.160166c27.345102-0.035273 49.505071-22.195242 49.540343-49.540344V603.068847c0-0.308943 0.308943-0.550989 0.505986-0.550988h93.194959c23.812935 0 32.491314-14.061771 35.128275-20.101971 2.658856-6.085204 7.008384-21.992118-9.205041-39.390229z m-499.496323-292.766038h481.503436c13.113048-0.555854 23.458989-11.348181 23.458989-24.473392s-10.345941-23.918754-23.458989-24.474609H271.259229a24.495286 24.495286 0 1 0 0 48.948001z" fill="#FFFFFF" p-id="15521"></path></svg>