<?xml version="1.0" standalone="no"?><!DOCTYPE svg PUBLIC "-//W3C//DTD SVG 1.1//EN" "http://www.w3.org/Graphics/SVG/1.1/DTD/svg11.dtd"><svg t="1504339030032" class="icon" style="" viewBox="0 0 1024 1024" version="1.1" xmlns="http://www.w3.org/2000/svg" p-id="2373" xmlns:xlink="http://www.w3.org/1999/xlink" width="32" height="32"><defs><style type="text/css"></style></defs><path d="M593.436444 47.872c-2.389333-0.512-4.778667-0.768-7.111111-0.881778-21.248-0.824889-39.850667 13.710222-44.145778 34.616889-2.360889 11.292444-0.170667 22.897778 6.229333 32.597333 6.371556 9.671111 16.099556 16.298667 27.477333 18.602667 91.306667 18.830222 169.898667 72.192 221.240889 150.215111 51.399111 78.051556 69.319111 171.320889 50.488889 262.599111-2.332444 11.349333-0.142222 22.897778 6.229333 32.597333 6.343111 9.671111 16.099556 16.298667 27.477333 18.631111 2.389333 0.483556 4.778667 0.768 7.111111 0.881778 9.102222 0.341333 17.92-2.133333 25.486222-7.139556 9.728-6.371556 16.270222-16.156444 18.631111-27.448889C981.077333 327.566222 828.956444 96.398222 593.436444 47.872L593.436444 47.872 593.436444 47.872 593.436444 47.872zM668.103111 699.363556c2.56 1.649778 59.790222 38.4 103.736889 83.569778 16.554667 17.095111 44.288 45.653333 43.576889 78.819556-0.625778 22.670222-13.425778 45.397333-39.111111 69.347556-6.4 6.257778-63.601778 59.733333-155.221333 59.733333-25.031111 0-50.830222-3.953778-76.544-11.804444-27.050667-8.192-54.528-20.849778-81.692444-37.575111-107.064889-63.232-189.696-144.668444-268.174222-264.078222C59.847111 472.064 55.950222 296.305778 56.576 263.139556c0.227556-152.888889 127.573333-213.048889 142.08-219.392C218.680889 34.474667 236.088889 30.008889 252.16 30.008889c7.708444 0 15.075556 1.052444 21.902222 3.128889 14.051556 4.266667 33.536 15.303111 46.648889 43.690667 17.834667 38.513778 34.759111 93.696 46.279111 151.495111 12.145778 59.932444-21.475556 76.8-53.987556 93.041778l-1.28 0.568889c0 0-57.543111 23.978667-67.640889 28.16-9.955556 4.152889-15.132444 15.36-11.719111 25.571556 23.182222 70.286222 58.652444 143.189333 102.4 210.773333 43.093333 66.531556 94.321778 127.943111 148.138667 177.635556 3.868444 3.498667 8.817778 5.461333 14.051556 5.461333l1.735111-0.113778c5.688889-0.455111 11.036444-3.356444 14.563556-7.850667 8.732444-11.264 22.158222-27.477333 36.323556-40.931556 26.823111-25.486222 51.143111-37.916444 74.183111-37.916444 6.343111 0 12.600889 0.938667 18.631111 2.816C648.163556 687.303111 657.521778 692.337778 668.103111 699.363556L668.103111 699.363556 668.103111 699.363556 668.103111 699.363556zM485.944889 403.456c-11.349333-2.360889-21.105778-8.96-27.505778-18.631111-6.4-9.671111-8.561778-21.276444-6.229333-32.625778 4.323556-20.849778 22.926222-35.413333 44.117333-34.56 2.360889 0.056889 4.750222 0.341333 7.139556 0.824889 100.664889 20.764444 165.660444 119.608889 144.952889 220.302222-2.275556 11.264-8.903111 21.048889-18.602667 27.477333-7.623111 5.034667-16.469333 7.424-25.486222 7.139556-2.304-0.142222-4.693333-0.398222-7.082667-0.938667-11.406222-2.275556-21.134222-8.903111-27.505778-18.602667-6.4-9.671111-8.618667-21.219556-6.257778-32.597333 5.347556-26.055111 0.284444-52.679111-14.449778-74.951111C534.385778 424.049778 512 408.803556 485.944889 403.456L485.944889 403.456 485.944889 403.456 485.944889 403.456zM531.057778 267.576889c-23.438222-4.864-38.542222-27.818667-33.735111-51.228444 4.323556-20.906667 22.840889-35.441778 44.117333-34.616889 2.304 0.113778 4.750222 0.369778 7.139556 0.881778 81.436444 16.782222 151.523556 64.398222 197.432889 134.058667 45.767111 69.632 61.838222 152.860444 44.999111 234.353778-2.332444 11.349333-8.931556 21.105778-18.602667 27.420444-7.68 5.063111-16.412444 7.537778-25.486222 7.196444-2.360889-0.142222-4.778667-0.483556-7.139556-0.938667-23.352889-4.778667-38.513778-27.761778-33.678222-51.171556 12.088889-58.823111 0.568889-118.926222-32.597333-169.216C640.426667 314.026667 589.852444 279.694222 531.057778 267.576889L531.057778 267.576889 531.057778 267.576889zM531.057778 267.576889" fill="#4E8EC5" p-id="2374"></path></svg>