<?xml version="1.0" standalone="no"?><!DOCTYPE svg PUBLIC "-//W3C//DTD SVG 1.1//EN" "http://www.w3.org/Graphics/SVG/1.1/DTD/svg11.dtd"><svg t="1503047273623" class="icon" style="" viewBox="0 0 1024 1024" version="1.1" xmlns="http://www.w3.org/2000/svg" p-id="7149" xmlns:xlink="http://www.w3.org/1999/xlink" width="16" height="16"><defs><style type="text/css"></style></defs><path d="M832 960H192.87A96 96 0 0 1 97 864.13v-703a96 96 0 0 1 95.87-95.87h63.91a32 32 0 1 1 0 63.91h-63.91a32 32 0 0 0-32 32v703a32 32 0 0 0 32 32H832a32 32 0 0 0 32-32v-703a32 32 0 0 0-32-32h-59.35a32 32 0 0 1 0-63.91H832a96 96 0 0 1 95.87 95.87v703A96 96 0 0 1 832 960z" fill="#2c2c2c" p-id="7150"></path><path d="M642.53 129.14H386.88a32 32 0 1 1 0-63.91h255.65a32 32 0 0 1 0 63.91zM738.4 352.83H291a32 32 0 0 1 0-63.91h447.4a32 32 0 0 1 0 63.91zM738.4 543.95H291a32 32 0 1 1 0-63.95h447.4a32 32 0 1 1 0 63.95zM738.4 735.09H291a32 32 0 1 1 0-63.91h447.4a32 32 0 0 1 0 63.91z" fill="#2c2c2c" p-id="7151"></path></svg>