<?xml version="1.0" standalone="no"?><!DOCTYPE svg PUBLIC "-//W3C//DTD SVG 1.1//EN" "http://www.w3.org/Graphics/SVG/1.1/DTD/svg11.dtd"><svg t="1503903755971" class="icon" style="" viewBox="0 0 1024 1024" version="1.1" xmlns="http://www.w3.org/2000/svg" p-id="7219" xmlns:xlink="http://www.w3.org/1999/xlink" width="16" height="16"><defs><style type="text/css"></style></defs><path d="M1006.256 488.831c-6.006 8.305-15.407 12.717-24.919 12.717-6.275 0-12.595-1.914-18.066-5.917l-443.275-323.602-443.307 323.602c-13.786 9.972-32.983 6.977-42.942-6.828-10.026-13.786-6.96-33.1 6.759-43.131l461.397-336.8c10.775-7.889 25.372-7.889 36.176 0l461.425 336.8c13.706 10.026 16.732 29.349 6.746 43.131v0zM871.799 905.678h-248.366c-16.988 0-30.777-13.814-30.777-30.868v-289.964h-145.322v289.964c0 17.057-13.786 30.868-30.777 30.868h-248.379c-17.008 0-30.754-13.814-30.754-30.868v-484.15c0-17.057 13.748-30.868 30.754-30.868 16.988 0 30.731 13.814 30.731 30.868v453.271h186.882v-289.964c0-17.065 13.786-30.868 30.754-30.868h206.849c16.967 0 30.754 13.792 30.754 30.868v289.964h186.849v-453.271c0-17.057 13.786-30.868 30.754-30.868 16.988 0 30.777 13.814 30.777 30.868v484.15c0 17.057-13.786 30.868-30.777 30.868v0z" p-id="7220" fill="#13227a"></path></svg>