<?xml version="1.0" standalone="no"?><!DOCTYPE svg PUBLIC "-//W3C//DTD SVG 1.1//EN" "http://www.w3.org/Graphics/SVG/1.1/DTD/svg11.dtd"><svg t="1503134223851" class="icon" style="" viewBox="0 0 1425 1024" version="1.1" xmlns="http://www.w3.org/2000/svg" p-id="4153" xmlns:xlink="http://www.w3.org/1999/xlink" width="22.265625" height="16"><defs><style type="text/css"></style></defs><path d="M733.048109 210.294453c48.993624-10.098306 86.41254-51.881926 86.412541-103.728017A106.336805 106.336805 0 0 0 712.880166 0.000287a106.329638 106.329638 0 0 0-106.558982 106.566149c0 48.972123 33.097214 89.300842 77.78347 102.280283L424.852699 663.936998 135.355996 410.454479c25.944546-15.839074 43.202687-43.19552 43.202686-74.880835 0-48.972123-40.314385-87.817273-89.272174-87.817273S0 286.594354 0 335.566477c0 48.972123 40.328719 87.853108 89.286508 87.853108 12.972273 0 24.468144-2.866801 35.99985-7.19567l99.37048 495.433332c47.517222 64.811197 247.713083 112.342753 488.216161 112.342753 234.769477 0 432.055535-50.398357 485.356528-112.342753l120.993324-488.244829-286.629903 244.846282-299.544839-457.964247z m603.432882 37.454751c-48.936288 0-89.265007 38.84515-89.265007 87.817273s40.328719 87.853108 89.265007 87.853108c48.943455 0 89.272174-38.873818 89.272174-87.853108 0-48.972123-40.328719-87.817273-89.272174-87.817273z" fill="#f4ea2a" p-id="4154"></path></svg>