<?xml version="1.0" standalone="no"?><!DOCTYPE svg PUBLIC "-//W3C//DTD SVG 1.1//EN" "http://www.w3.org/Graphics/SVG/1.1/DTD/svg11.dtd"><svg t="1503903562984" class="icon" style="" viewBox="0 0 1024 1024" version="1.1" xmlns="http://www.w3.org/2000/svg" p-id="6922" xmlns:xlink="http://www.w3.org/1999/xlink" width="16" height="16"><defs><style type="text/css"></style></defs><path d="M435.760235 263.432223 16.08443 263.432223 16.08443 420.567467 435.760235 420.567467 435.760235 263.432223 435.760235 263.432223ZM750.307252 9.344528C802.661808-15.48284 874.58375 11.387287 899.449542 63.660945 924.315333 115.934602 902.020056 190.050065 840.380171 219.539108 788.130534 244.523612 583.32874 289.569052 558.462949 237.295394 533.544698 185.126492 697.952696 34.171895 750.307252 9.344528L750.307252 9.344528 750.307252 9.344528ZM817.875057 160.61339C844.052335 148.199709 855.173743 119.286823 842.740848 93.149994 830.307953 67.013165 798.989645 65.232297 772.864826 77.645983 746.687548 90.059664 640.771867 166.270261 653.204762 192.40709 665.637657 218.543919 791.697778 173.027077 817.875057 160.61339L817.875057 160.61339 817.875057 160.61339ZM435.760235 472.945883 68.543908 472.945883 68.543908 996.730037 435.760235 996.730037 435.760235 472.945883 435.760235 472.945883ZM1012.814468 263.432223 593.138663 263.432223 593.138663 420.567467 1012.814468 420.567467 1012.814468 263.432223 1012.814468 263.432223ZM960.354993 472.945883 593.138663 472.945883 593.138663 996.730037 960.354993 996.730037 960.354993 472.945883 960.354993 472.945883ZM129.396896 63.660945C154.262688 11.387287 226.184628-15.48284 278.539188 9.344528 330.893747 34.171895 495.301741 185.074112 470.435949 237.347769 445.570158 289.621427 240.768364 244.575992 188.466269 219.591489 126.826385 190.102439 104.531104 115.934602 129.396896 63.660945L129.396896 63.660945 129.396896 63.660945ZM211.023839 160.61339C237.201121 173.027077 363.261243 218.543919 375.746597 192.40709 388.127034 166.270261 282.211348 90.059664 256.08653 77.645983 229.909254 65.232297 198.590943 67.013165 186.210506 93.149994 173.725157 119.286823 184.846562 148.199709 211.023839 160.61339L211.023839 160.61339 211.023839 160.61339Z" p-id="6923"></path></svg>