<?xml version="1.0" standalone="no"?><!DOCTYPE svg PUBLIC "-//W3C//DTD SVG 1.1//EN" "http://www.w3.org/Graphics/SVG/1.1/DTD/svg11.dtd"><svg t="1503048935452" class="icon" style="" viewBox="0 0 1024 1024" version="1.1" xmlns="http://www.w3.org/2000/svg" p-id="8417" xmlns:xlink="http://www.w3.org/1999/xlink" width="16" height="16"><defs><style type="text/css"></style></defs><path d="M91.7 479.4c-7.1 0-14.2-3-19.2-8.9-9.1-10.6-7.8-26.6 2.8-35.6L495.5 76.1c10.6-9.1 26.6-7.8 35.6 2.8 9.1 10.6 7.8 26.6-2.8 35.6L108 473.4c-4.7 4-10.5 6-16.3 6z m840.6 0c-5.8 0-11.6-2-16.4-6.1L495.7 114.5c-10.6-9.1-11.9-25-2.8-35.6 9.1-10.6 25-11.9 35.6-2.8L948.7 435c10.6 9.1 11.9 25 2.8 35.6-4.9 5.8-12 8.8-19.2 8.8zM828.7 954H201.5c-42.9 0-77.8-34.9-77.8-77.8v-471c0-14 11.3-25.3 25.3-25.3s25.3 11.3 25.3 25.3v471c0 15 12.2 27.3 27.3 27.3h627.1c15 0 27.3-12.2 27.3-27.3V410.5c0-14 11.3-25.3 25.3-25.3s25.3 11.3 25.3 25.3v465.7c-0.1 42.9-35 77.8-77.9 77.8z m-145.2 0c-14 0-25.3-11.3-25.3-25.3V597.6c0-15-12.2-27.3-27.3-27.3H392.8c-15 0-27.3 12.2-27.3 27.3v331.1c0 14-11.3 25.3-25.3 25.3S315 942.7 315 928.7V597.6c0-42.9 34.9-77.8 77.8-77.8H631c42.9 0 77.8 34.9 77.8 77.8v331.1c0 14-11.3 25.3-25.3 25.3z" fill="" p-id="8418"></path></svg>