<?xml version="1.0" standalone="no"?><!DOCTYPE svg PUBLIC "-//W3C//DTD SVG 1.1//EN" "http://www.w3.org/Graphics/SVG/1.1/DTD/svg11.dtd"><svg t="1503903540727" class="icon" style="" viewBox="0 0 1024 1024" version="1.1" xmlns="http://www.w3.org/2000/svg" p-id="6180" xmlns:xlink="http://www.w3.org/1999/xlink" width="16" height="16"><defs><style type="text/css"></style></defs><path d="M367.911324 63.053058h3.069919c3.314489 1.37123 6.631024 2.737344 9.942443 4.115738 22.757307 9.474792 45.794999 18.334577 68.203358 28.570709 34.55398 15.783475 67.327408 34.844599 98.515734 56.591902 25.152866 17.538445 48.533366 37.239136 70.640874 58.421574 8.410554 8.058536 16.236799 16.797571 23.716144 25.739221 10.637268 12.717649 21.167089 25.574469 30.91715 38.972617 15.45704 21.240767 28.66383 43.862997 39.365566 67.932182 8.611122 19.368116 16.238846 39.042201 20.958335 59.755965 1.416256 6.216585 2.811022 12.437264 4.51585 19.9821 21.222347-29.03222 26.098401-62.210877 32.28838-96.425119 12.088316 18.965957 23.817452 36.582173 34.741246 54.683436 17.876136 29.621645 34.95 59.739593 48.863894 91.456968 9.562796 21.799492 18.98233 43.74941 26.730805 66.230424 7.357572 21.348214 13.313214 43.279712 18.301831 65.313542 4.548596 20.092617 7.67275 40.581254 7.53358 61.362556-0.007163 1.029446 0.636496 2.061962 0.977258 3.093454v26.605962c-0.344854 4.782933-0.296759 9.632381-1.106194 14.335496-2.885723 16.766872-5.403057 33.639145-9.284457 50.183959-5.792936 24.699542-16.011672 47.810912-29.82119 69.015864-8.835226 13.566994-19.266809 26.128077-29.389354 38.81605-11.651364 14.602579-25.576515 26.952862-40.768519 37.705764-13.610996 9.633405-27.517727 18.916838-41.800011 27.51568-19.897166 11.979846-41.055045 21.378913-63.938218 28.282137 0.339738-1.61887 0.464581-2.924609 0.887206-4.125971 5.198395-14.764262 10.92584-29.363771 15.558348-44.303018 6.964622-22.461571 12.83226-45.235251 15.510252-68.694545 1.693572-14.833847 4.266164-29.631878 4.870937-44.509727 1.010003-24.853038 0.026606-49.683563-3.777023-74.385151-3.255137-21.144576-7.848759-41.914622-14.345729-62.284555-9.983375-31.301913-23.707958-60.851926-40.840151-88.892562-18.110473-29.642111-39.065737-57.026808-63.564711-81.656765-7.53972-7.579629-15.187911-15.086603-23.218818-22.135137-11.190877-9.821693-22.788006-19.180851-35.246758-29.604248 0.810459 8.225335 1.997494 14.830777 2.003633 21.437242 0.011256 14.768355-0.148379 29.562293-1.035586 44.297902-0.714268 11.865235-2.164293 23.729447-4.052292 35.470862-3.700275 23.00904-10.420327 45.26288-21.388123 65.798589-7.438413 13.927197-16.534582 27.04189-25.711592 39.934524-4.420683 6.209422-10.740622 11.066033-16.405645 16.74129-9.477862-29.970592-28.195156-52.414767-49.666166-73.515341-2.962471 3.880377-5.785773 7.216355-8.216125 10.81737-22.920012 33.955346-44.599777 68.619844-60.533679 106.549711-12.04943 28.682249-21.855774 57.977459-25.835411 89.034803-2.213411 17.269315-3.728928 34.412764-2.15406 51.903113 1.283226 14.243399 3.40761 28.167526 7.270591 41.927925 6.357801 22.645766 16.388249 43.312458 31.513738 61.428048 2.971681 3.559059 5.676279 7.340175 8.503674 11.019985h-1.023306c-0.185218-0.267083-0.331551-0.730641-0.559749-0.77362-11.139711-2.13564-22.312168-4.107551-33.426297-6.363941-31.382754-6.371104-61.242829-17.040095-89.542362-32.051997-28.294416-15.009855-53.547567-33.810037-74.730005-58.091046-12.858866-14.739702-24.292266-30.464849-32.724309-47.951105-7.569396-15.697517-14.152325-32.069393-19.151175-48.748261-4.379751-14.612813-6.007831-30.05655-8.738012-45.154409-0.876973-4.848425-1.390673-9.761318-2.070148-14.645559v-40.932248c0.337691-0.689708 0.919952-1.362021 0.974187-2.073218 0.421602-5.553483 0.286526-11.18883 1.175779-16.660448 3.291976-20.253276 6.966669-40.532135 15.581883-59.284221 3.928472-8.55177 9.373485-16.691147 15.458064-23.896247 7.718799-9.142218 17.590634-16.492626 25.115004-25.76685 18.676361-23.019273 32.321126-48.967248 42.069141-76.988442 6.638187-19.082614 12.502755-38.337143 15.377222-58.407248 0.76134-5.318122 1.969864-10.5728 3.224438-17.184381 22.769586 32.485879 40.398082 66.25703 55.972803 101.382015 2.322905-1.77339 4.287653-2.880607 5.75405-4.452405 12.471033-13.366426 25.310456-26.424836 37.154202-40.330544 19.744693-23.181979 34.815947-49.320289 46.791699-77.308736 15.103999-35.298947 22.569018-72.328305 24.77322-110.435205 0.75213-13.002129 0.197498-26.184359-1.006934-39.169092-1.732457-18.667152-4.019547-37.32714-7.138584-55.809073-4.110621-24.364921-11.416004-47.941895-20.427238-70.944796-3.76372-9.609869-8.105608-18.98847-12.184507-28.471448z" fill="" p-id="6181"></path></svg>