<?xml version="1.0" standalone="no"?><!DOCTYPE svg PUBLIC "-//W3C//DTD SVG 1.1//EN" "http://www.w3.org/Graphics/SVG/1.1/DTD/svg11.dtd"><svg t="1503049014087" class="icon" style="" viewBox="0 0 1024 1024" version="1.1" xmlns="http://www.w3.org/2000/svg" p-id="10019" xmlns:xlink="http://www.w3.org/1999/xlink" width="16" height="16"><defs><style type="text/css"></style></defs><path d="M832.92864 416V217.6c128 0 128-6.4 128 64s-57.6 134.4-128 134.4z m-64-64c0 140.8-115.2 326.4-256 326.4S256.92864 492.8 256.92864 352V153.6c0-32 32-64 64-64h384c32 0 64 32 64 64v198.4z m-576 64c-70.4 0-128-57.6-128-128s0-64 128-64v192z m640-262.4c0-70.4-57.6-128-128-128H320.92864c-70.4 0-128 57.6-128 128-217.6 0-192 0-192 128 0 108.8 83.2 198.4 192 198.4h19.2c44.8 128 140.8 243.2 262.4 262.4v198.4H384.92864c-19.2 0-32 12.8-32 32s12.8 32 32 32h256c19.2 0 32-12.8 32-32s-12.8-32-32-32H544.92864v-198.4c121.6-19.2 224-134.4 262.4-262.4h19.2c108.8 0 192-89.6 192-198.4 6.4-128 32-128-185.6-128z" p-id="10020"></path></svg>