<?xml version="1.0" standalone="no"?><!DOCTYPE svg PUBLIC "-//W3C//DTD SVG 1.1//EN" "http://www.w3.org/Graphics/SVG/1.1/DTD/svg11.dtd"><svg t="1503903813678" class="icon" style="" viewBox="0 0 1024 1024" version="1.1" xmlns="http://www.w3.org/2000/svg" p-id="12878" xmlns:xlink="http://www.w3.org/1999/xlink" width="16" height="16"><defs><style type="text/css"></style></defs><path d="M305.738309 162.564469l171.038468 0-146.32767 198.828394L138.099265 361.392864 305.738309 162.564469zM696.464245 396.677485l188.818413 0L560.462758 782.40457 696.464245 396.677485zM374.262986 361.392864l137.40751-186.704263 137.418766 186.704263L374.262986 361.392864zM659.055241 396.677485 511.670495 814.670437 364.3011 396.677485 659.055241 396.677485zM326.882885 396.677485l136.000464 385.727085L138.067542 396.677485 326.882885 396.677485zM885.247866 361.392864 692.901093 361.392864l-146.338926-198.828394 171.057911 0L885.247866 361.392864zM936.688445 367.663684l-197.379393-234.111992c-3.348258-3.976568-8.28264-6.27082-13.487176-6.27082L297.538557 127.280872c-5.201465 0-10.135848 2.294252-13.489222 6.27082L86.658685 367.663684c-4.423753 5.244444-5.406127 12.582573-2.512217 18.807345 0.669242 1.431605 1.554402 2.719948 2.542916 3.891633l-0.038886 0.035816 425.018973 504.719176 425.023066-504.719176-0.039909-0.035816c0.991584-1.171686 1.874697-2.460028 2.542916-3.891633C942.091502 380.246257 941.112198 372.907105 936.688445 367.663684z" p-id="12879" fill="#13227a"></path></svg>