<?xml version="1.0" standalone="no"?><!DOCTYPE svg PUBLIC "-//W3C//DTD SVG 1.1//EN" "http://www.w3.org/Graphics/SVG/1.1/DTD/svg11.dtd"><svg t="1504157843833" class="icon" style="" viewBox="0 0 1024 1024" version="1.1" xmlns="http://www.w3.org/2000/svg" p-id="3266" xmlns:xlink="http://www.w3.org/1999/xlink" width="25" height="25"><defs><style type="text/css"></style></defs><path d="M276.613585 270.832376C276.613585 148.423731 381.20559 53.781513 511.355106 53.781513L511.355106 29.66475 511.355106 5.547988 508.959784 5.547988 508.959784 29.66475 508.959784 53.781513C636.900851 53.781513 734.120017 146.444043 734.120017 270.832376L734.120017 319.065899 782.02645 319.065899 782.02645 270.832376C782.02645 119.196321 662.789511 5.547988 508.959784 5.547988L508.959784 53.781513 511.355106 53.781513 511.355106 5.547988C355.820345 5.547988 228.707153 120.568965 228.707153 270.832376L228.707153 391.416188 276.613585 391.416188 276.613585 270.832376ZM659.865048 656.700575C659.865048 576.784653 595.519725 512 516.14575 512 436.771773 512 372.42645 576.784653 372.42645 656.700575 372.42645 736.616497 436.771773 801.40115 516.14575 801.40115 595.519725 801.40115 659.865048 736.616497 659.865048 656.700575ZM420.332884 656.700575C420.332884 603.423294 463.229763 560.233526 516.14575 560.233526 569.061734 560.233526 611.958614 603.423294 611.958614 656.700575 611.958614 709.977856 569.061734 753.167624 516.14575 753.167624 463.229763 753.167624 420.332884 709.977856 420.332884 656.700575ZM492.192534 873.751436 540.098964 873.751436 540.098964 777.284387 492.192534 777.284387 492.192534 873.751436ZM252.660369 970.218488C186.843751 970.218488 132.894287 915.900672 132.894287 849.634676L132.894287 536.116763C132.894287 469.850767 186.843751 415.532951 252.660369 415.532951L779.631128 415.532951C845.447747 415.532951 899.397212 469.850767 899.397212 536.116763L899.397212 849.634676C899.397212 915.900672 845.447747 970.218488 779.631128 970.218488L252.660369 970.218488ZM947.303645 849.634676 947.303645 536.116763C947.303645 443.212126 871.905738 367.299425 779.631128 367.299425L252.660369 367.299425C160.385759 367.299425 84.987854 443.212126 84.987854 536.116763L84.987854 849.634676C84.987854 942.539313 160.385759 1018.452011 252.660369 1018.452011L779.631128 1018.452011C871.905738 1018.452011 947.303645 942.539313 947.303645 849.634676Z" p-id="3267" fill="#888"></path></svg>