<?xml version="1.0" standalone="no"?><!DOCTYPE svg PUBLIC "-//W3C//DTD SVG 1.1//EN" "http://www.w3.org/Graphics/SVG/1.1/DTD/svg11.dtd"><svg t="1509954292951" class="icon" style="" viewBox="0 0 1024 1024" version="1.1" xmlns="http://www.w3.org/2000/svg" p-id="1903" xmlns:xlink="http://www.w3.org/1999/xlink" width="48" height="48"><defs><style type="text/css"></style></defs><path d="M168.265143 874.020571 131.693714 874.020571 131.693714 312.722286 349.293714 312.722286 349.293714 692.955429 312.722286 692.955429 312.722286 349.293714 168.265143 349.293714Z" p-id="1904" fill="#ffffff"></path><path d="M711.241143 767.963429 674.669714 767.963429 674.669714 168.265143 418.304 168.265143 418.304 692.955429 381.732571 692.955429 381.732571 131.693714 711.241143 131.693714Z" p-id="1905" fill="#ffffff"></path><path d="M829.732571 874.020571 793.161143 874.020571 793.161143 498.285714 692.955429 498.285714 692.955429 461.714286 829.732571 461.714286Z" p-id="1906" fill="#ffffff"></path><path d="M528.018286 855.734857l346.038857 0 0 36.571429-346.038857 0 0-36.571429Z" p-id="1907" fill="#ffffff"></path><path d="M580.571429 366.665143l-146.285714 0 0-146.285714 146.285714 0L580.571429 366.665143zM470.857143 330.093714l73.142857 0 0-73.142857-73.142857 0L470.857143 330.093714z" p-id="1908" fill="#ffffff"></path><path d="M580.571429 547.657143l-146.285714 0 0-146.285714 146.285714 0L580.571429 547.657143zM470.857143 511.085714l73.142857 0 0-73.142857-73.142857 0L470.857143 511.085714z" p-id="1909" fill="#ffffff"></path><path d="M296.265143 530.285714l-111.542857 0 0-111.542857 111.542857 0L296.265143 530.285714zM221.293714 493.714286l38.4 0 0-38.4-38.4 0L221.293714 493.714286z" p-id="1910" fill="#ffffff"></path></svg>