<?xml version="1.0" standalone="no"?><!DOCTYPE svg PUBLIC "-//W3C//DTD SVG 1.1//EN" "http://www.w3.org/Graphics/SVG/1.1/DTD/svg11.dtd"><svg t="1510640927017" class="icon" style="" viewBox="0 0 1024 1024" version="1.1" xmlns="http://www.w3.org/2000/svg" p-id="1869" xmlns:xlink="http://www.w3.org/1999/xlink" width="200" height="200"><defs><style type="text/css"></style></defs><path d="M302.006823 69.323878c-3.257184-2.758834-7.461949-4.431939-12.06478-4.431939-10.31595 0-18.676361 8.362458-18.676361 18.677385 0 4.656043 1.713015 8.904811 4.533246 12.173251l-0.008186 0.008186 0.106424 0.104377c0.700965 0.800225 428.76632 416.039461 428.76632 416.039461S276.595061 927.515528 275.897166 928.313707l-0.106424 0.105401 0.005117 0.007163c-2.817162 3.270487-4.533246 7.518231-4.533246 12.174274 0 10.313903 8.363482 18.676361 18.676361 18.676361 4.773723 0 9.125845-1.788739 12.428054-4.732791l442.212564-428.66706c0 0 13.047154-14.583137 0-27.631314 0 0-441.918875-428.350858-442.435645-428.79702l-0.134053-0.127913L302.006823 69.323878 302.006823 69.323878z" p-id="1870" fill="#8D8D8F"></path></svg>